# xmcd
#
# Track frame offsets: 
#        151
#        18186
#        35122
#        50623
#        71811
#        92494
#        107981
#        126243
#        147311
#        162561
#
# Disc length: 2430 seconds
#
# Revision: 6
# Processed by: cddbd v1.5.1PL0 Copyright (c) Steve Scherf et al.
# Submitted via: ExactAudioCopy v0.90b4
#
DISCID=92097c0a
DTITLE=The Forester Sisters - More Than I Am
DYEAR=1996
DGENRE=Country
TTITLE0=More Than I Am
TTITLE1=Another Shoulder At The Wheel
TTITLE2=Have You Seen Me
TTITLE3=Let's Get Together
TTITLE4=We Will Not Pass This Way Again
TTITLE5=Hammer and Nails
TTITLE6=Love And Time
TTITLE7=Come As You Are
TTITLE8=When I See Love
TTITLE9=I Will Forever Praise Your Name
EXTD=corrected\nmore info - MillenniumMusicProjectFormat - SYNTAX=SongT
EXTD=itle{Subtitle}[miscInfo](Lyricist;Composer;Date,Artist,Location,S
EXTD=tate,Country)
EXTT0=
EXTT1=
EXTT2=
EXTT3=
EXTT4=
EXTT5=
EXTT6=
EXTT7=
EXTT8=
EXTT9=
PLAYORDER=
